<svg xmlns="http://www.w3.org/2000/svg" version="1.1" xmlns:xlink="http://www.w3.org/1999/xlink" width="512" height="512" x="0" y="0" viewBox="0 0 24 24" style="enable-background:new 0 0 512 512" xml:space="preserve" class=""><g><path d="M11 4v4a3 3 0 0 1-3 3H4a3 3 0 0 1-3-3V4a3 3 0 0 1 3-3h4a3 3 0 0 1 3 3zm9-3h-4a3 3 0 0 0-3 3v4a3 3 0 0 0 3 3h4a3 3 0 0 0 3-3V4a3 3 0 0 0-3-3zM8 13H4a3 3 0 0 0-3 3v4a3 3 0 0 0 3 3h4a3 3 0 0 0 3-3v-4a3 3 0 0 0-3-3zm12 0h-4a3 3 0 0 0-3 3v4a3 3 0 0 0 3 3h4a3 3 0 0 0 3-3v-4a3 3 0 0 0-3-3z" data-name="03 dashboard, layout, grid" fill="#ffffff" opacity="1" data-original="#000000" class=""></path></g></svg>