<svg xmlns="http://www.w3.org/2000/svg" version="1.1" xmlns:xlink="http://www.w3.org/1999/xlink" width="512" height="512" x="0" y="0" viewBox="0 0 512 512" style="enable-background:new 0 0 512 512" xml:space="preserve"><g><path d="M80.718 152h30v30c0 8.284-6.716 15-15 15s-15-6.716-15-15v-30H36.637c-10.615 0-19.38 8.292-19.969 18.891L.063 469.781C-1.211 492.709 17.038 512 40.001 512h162.384c-9.061-13.037-13.537-28.937-12.41-44.924l11.888-168.593c.893-12.664 6.5-24.405 15.787-33.061S239.044 252 251.739 252h68.599l-4.506-81.109c-.589-10.599-9.354-18.891-19.969-18.891h-39.145V88c0-48.523-39.477-88-88-88s-88 39.477-88 88zm30-64c0-31.981 26.019-58 58-58s58 26.019 58 58v64h30v30c0 8.284-6.716 15-15 15s-15-6.716-15-15v-30h-116z" fill="#ffffff" opacity="1" data-original="#000000"></path><path d="m511.899 469.186-11.888-168.593C499.272 290.119 490.56 282 480.06 282H251.739c-10.5 0-19.212 8.119-19.95 18.593l-11.888 168.593C218.269 492.328 236.603 512 259.802 512h212.196c23.199 0 41.533-19.672 39.901-42.814zm-90.124-109.044c0 31.903-25.955 57.858-57.857 57.858-31.903 0-57.858-25.955-57.858-57.858V342c0-8.284 6.716-15 15-15s15 6.716 15 15v18.142c0 15.361 12.497 27.858 27.858 27.858 15.36 0 27.857-12.497 27.857-27.858V342c0-8.284 6.716-15 15-15s15 6.716 15 15z" fill="#ffffff" opacity="1" data-original="#000000"></path></g></svg>