<svg xmlns="http://www.w3.org/2000/svg" version="1.1" xmlns:xlink="http://www.w3.org/1999/xlink" width="512" height="512" x="0" y="0" viewBox="0 0 24 24" style="enable-background:new 0 0 512 512" xml:space="preserve" class=""><g><circle cx="10.5" cy="22.5" r="1.5" fill="#ffffff" opacity="1" data-original="#000000"></circle><circle cx="18.5" cy="22.5" r="1.5" fill="#ffffff" opacity="1" data-original="#000000"></circle><path d="M24 6.5c0 3.584-2.916 6.5-6.5 6.5S11 10.084 11 6.5 13.916 0 17.5 0 24 2.916 24 6.5zm-3.342-3.002a1.001 1.001 0 0 0-1.411.094l-2.796 3.196-1.244-1.244a.999.999 0 1 0-1.414 1.414l2 2a1 1 0 0 0 1.459-.048l3.5-4a1 1 0 0 0-.094-1.412z" fill="#ffffff" opacity="1" data-original="#000000"></path><path d="M9 6.5c0-.169.015-.334.025-.5H6.359l-.38-1.806A2.764 2.764 0 0 0 3.3 2.011L.753 2H.75a.75.75 0 0 0-.003 1.5l2.546.011c.585.002 1.097.42 1.218.992l.505 2.401 1.81 8.596H6.25C5.009 15.5 4 16.509 4 17.75S5.009 20 6.25 20h15a.75.75 0 0 0 0-1.5h-15a.75.75 0 0 1 0-1.5h15a.751.751 0 0 0 .734-.596l.665-3.157A8.445 8.445 0 0 1 17.5 15C12.813 15 9 11.187 9 6.5z" fill="#ffffff" opacity="1" data-original="#000000"></path></g></svg>