<svg xmlns="http://www.w3.org/2000/svg" version="1.1" xmlns:xlink="http://www.w3.org/1999/xlink" width="512" height="512" x="0" y="0" viewBox="0 0 32 32" style="enable-background:new 0 0 512 512" xml:space="preserve"><g><g data-name="40-Fast-delivery"><path d="m29.91 15.6-2.21-5a1 1 0 0 0-.91-.6h-5.35l.32-2.89a1 1 0 0 0-.25-.78 1 1 0 0 0-.74-.33H7a1 1 0 0 0 0 2h5a1 1 0 0 1 0 2H5a1 1 0 0 0 0 2h10a1 1 0 0 1 0 2H8a1 1 0 0 0 0 2h4a1 1 0 0 1 0 2H4a1 1 0 0 0 0 2h2a1 1 0 0 1 0 2H5a1 1 0 0 0 0 2h2.85a2.78 2.78 0 0 0 .6 1.14 2.58 2.58 0 0 0 1.93.86 3.13 3.13 0 0 0 2.83-2h7.64a2.78 2.78 0 0 0 .6 1.14 2.58 2.58 0 0 0 1.93.86 3.13 3.13 0 0 0 2.83-2h2a1 1 0 0 0 1-.89l.77-7a.89.89 0 0 0-.07-.51zM10.38 24a.55.55 0 0 1-.44-.19.9.9 0 0 1-.19-.7A1.23 1.23 0 0 1 10.83 22a.55.55 0 0 1 .44.19.9.9 0 0 1 .19.7A1.23 1.23 0 0 1 10.38 24zm13 0a.55.55 0 0 1-.44-.19.9.9 0 0 1-.19-.7A1.23 1.23 0 0 1 23.83 22a.55.55 0 0 1 .44.19.9.9 0 0 1 .19.7A1.23 1.23 0 0 1 23.38 24zm4.5-7h-4.42a1 1 0 0 1-.74-.33 1 1 0 0 1-.25-.78l.33-3a1 1 0 0 1 1-.88h2.33L28 16.16z" fill="#ffffff" opacity="1" data-original="#000000"></path><path d="M4 16a1 1 0 0 0 0-2H3a1 1 0 0 0 0 2z" fill="#ffffff" opacity="1" data-original="#000000"></path></g></g></svg>